<svg width="1288" height="648" viewBox="0 0 1288 648" fill="none" xmlns="http://www.w3.org/2000/svg">
<rect width="1288" height="648" fill="#E5E5E5"/>
<g filter="url(#filter0_d)">
<rect x="4" width="1280" height="640" fill="#F7F176"/>
</g>
<path d="M352.538 332.36V368.84C349.178 370.76 345.178 372.28 340.538 373.4C335.898 374.44 331.178 374.96 326.378 374.96C319.498 374.96 313.298 373.88 307.777 371.72C302.338 369.56 297.658 366.6 293.738 362.84C289.818 359 286.818 354.48 284.738 349.28C282.658 344.08 281.618 338.4 281.618 332.24C281.618 325.44 282.818 319.24 285.218 313.64C287.698 307.96 291.018 303.08 295.178 299C299.418 294.92 304.258 291.76 309.698 289.52C315.218 287.2 321.058 286.04 327.218 286.04C331.378 286.04 335.738 286.6 340.297 287.72C344.858 288.76 348.818 290.28 352.178 292.28L345.818 302.96C344.618 302.24 343.218 301.6 341.618 301.04C340.098 300.48 338.498 300 336.818 299.6C335.138 299.2 333.458 298.92 331.778 298.76C330.098 298.52 328.498 298.4 326.978 298.4C322.738 298.4 318.658 299.24 314.738 300.92C310.818 302.6 307.378 304.92 304.418 307.88C301.458 310.84 299.098 314.32 297.338 318.32C295.578 322.32 294.698 326.64 294.698 331.28C294.698 335.52 295.458 339.52 296.978 343.28C298.578 347.04 300.778 350.36 303.578 353.24C306.378 356.12 309.738 358.4 313.658 360.08C317.578 361.76 321.898 362.6 326.618 362.6C328.458 362.6 330.618 362.44 333.098 362.12C335.658 361.72 338.098 361.08 340.418 360.2V343.64H323.498V332.36H352.538ZM363.677 304.64C363.677 302.72 364.357 301.12 365.717 299.84C367.157 298.56 368.677 297.92 370.277 297.92C371.877 297.92 373.357 298.56 374.717 299.84C376.077 301.12 376.757 302.72 376.757 304.64C376.757 306.56 376.077 308.16 374.717 309.44C373.357 310.64 371.877 311.24 370.277 311.24C368.677 311.24 367.157 310.64 365.717 309.44C364.357 308.16 363.677 306.56 363.677 304.64ZM375.197 374H364.997V323.84H375.197V374ZM393.926 301.76H404.126V323.96H417.566V333.08H404.126V374H393.926V333.08H384.926V323.96H393.926V301.76ZM427.305 374V287H440.385V323.96H483.945V287H497.145C497.145 288.04 497.145 290 497.145 292.88C497.145 295.68 497.145 299.04 497.145 302.96C497.145 306.88 497.145 311.24 497.145 316.04C497.145 320.76 497.105 325.6 497.025 330.56C497.025 335.44 497.025 340.28 497.025 345.08C497.025 349.8 497.025 354.12 497.025 358.04C497.025 361.96 497.025 365.36 497.025 368.24C497.025 371.04 497.025 372.96 497.025 374H483.945V336.44H440.385V374H427.305ZM560.622 375.08H551.982L550.782 361.16C548.942 365.24 546.342 368.6 542.982 371.24C539.702 373.88 535.502 375.2 530.382 375.2C525.262 375.2 521.182 373.84 518.142 371.12C515.182 368.32 513.622 364.68 513.462 360.2V323.84H523.662V355.64C523.822 358.12 524.702 360.24 526.302 362C527.982 363.76 530.542 364.76 533.982 365C536.382 365 538.582 364.6 540.582 363.8C542.582 362.92 544.302 361.76 545.742 360.32C547.182 358.88 548.302 357.16 549.102 355.16C549.902 353.16 550.302 350.96 550.302 348.56V323.84H560.622V375.08ZM628.637 349.04C628.637 352.8 627.997 356.28 626.717 359.48C625.437 362.68 623.637 365.44 621.317 367.76C618.997 370.08 616.197 371.92 612.917 373.28C609.717 374.56 606.197 375.2 602.357 375.2C600.357 375.2 598.437 374.96 596.597 374.48C594.837 374.08 593.197 373.52 591.677 372.8C590.157 372 588.837 371.16 587.717 370.28C586.597 369.32 585.757 368.36 585.197 367.4C585.197 367.8 585.197 368.24 585.197 368.72C585.277 369.12 585.317 369.52 585.317 369.92V374H574.997V280.76H585.317V331.16C585.957 330.2 586.797 329.24 587.837 328.28C588.957 327.24 590.237 326.32 591.677 325.52C593.197 324.64 594.877 323.92 596.717 323.36C598.557 322.8 600.597 322.52 602.837 322.52C606.677 322.52 610.157 323.16 613.277 324.44C616.477 325.64 619.197 327.4 621.437 329.72C623.757 331.96 625.517 334.72 626.717 338C627.997 341.28 628.637 344.96 628.637 349.04ZM617.477 348.8C617.477 346.48 617.117 344.36 616.397 342.44C615.677 340.44 614.637 338.72 613.277 337.28C611.917 335.84 610.277 334.72 608.357 333.92C606.437 333.04 604.277 332.6 601.877 332.6C599.477 332.6 597.237 333.04 595.157 333.92C593.157 334.72 591.437 335.84 589.997 337.28C588.557 338.72 587.397 340.44 586.517 342.44C585.717 344.36 585.317 346.48 585.317 348.8C585.317 351.12 585.717 353.28 586.517 355.28C587.397 357.28 588.557 359 589.997 360.44C591.437 361.88 593.157 363.04 595.157 363.92C597.237 364.72 599.477 365.12 601.877 365.12C604.277 365.12 606.437 364.72 608.357 363.92C610.277 363.04 611.917 361.88 613.277 360.44C614.637 358.92 615.677 357.2 616.397 355.28C617.117 353.28 617.477 351.12 617.477 348.8ZM724.818 374C724.418 373.12 723.858 371.84 723.138 370.16C722.418 368.48 721.578 366.56 720.618 364.4C719.738 362.16 718.738 359.76 717.618 357.2C716.578 354.56 715.498 351.84 714.378 349.04H683.658L673.338 374H660.378L699.138 282.92C699.618 284.04 700.458 286.08 701.658 289.04C702.938 292 704.418 295.56 706.098 299.72C707.858 303.8 709.778 308.36 711.858 313.4C714.018 318.36 716.178 323.4 718.338 328.52C720.578 333.64 722.738 338.68 724.818 343.64C726.978 348.6 728.938 353.16 730.698 357.32C732.458 361.48 733.938 365.04 735.138 368C736.418 370.88 737.298 372.88 737.778 374H724.818ZM688.218 338H709.938C708.818 335.36 707.738 332.84 706.698 330.44C705.738 327.96 704.818 325.72 703.938 323.72C703.138 321.64 702.418 319.84 701.778 318.32C701.138 316.8 700.658 315.6 700.338 314.72C700.258 314.56 700.058 314 699.738 313.04C699.498 312.08 699.298 311.2 699.138 310.4C698.978 311.2 698.738 312.08 698.418 313.04C698.098 314 697.898 314.56 697.818 314.72L688.218 338ZM777.464 361.64C778.584 363 779.624 364.32 780.584 365.6C781.624 366.8 782.664 368.08 783.704 369.44C781.464 371.2 778.944 372.6 776.144 373.64C773.344 374.68 770.304 375.2 767.024 375.2C763.344 375.2 759.864 374.52 756.584 373.16C753.384 371.72 750.584 369.8 748.184 367.4C745.784 365 743.864 362.2 742.424 359C741.064 355.8 740.384 352.4 740.384 348.8C740.384 345.2 741.064 341.8 742.424 338.6C743.864 335.4 745.784 332.64 748.184 330.32C750.584 327.92 753.384 326.04 756.584 324.68C759.864 323.24 763.344 322.52 767.024 322.52C770.384 322.52 773.464 323.04 776.264 324.08C779.144 325.12 781.744 326.52 784.064 328.28L777.464 336.08C776.104 334.96 774.544 334.12 772.784 333.56C771.024 332.92 769.104 332.6 767.024 332.6C764.624 332.6 762.424 333.04 760.424 333.92C758.424 334.72 756.664 335.84 755.144 337.28C753.704 338.72 752.584 340.44 751.784 342.44C750.984 344.36 750.584 346.48 750.584 348.8C750.584 351.12 750.984 353.28 751.784 355.28C752.584 357.2 753.704 358.92 755.144 360.44C756.664 361.88 758.424 363.04 760.424 363.92C762.424 364.72 764.624 365.12 767.024 365.12C769.104 365.12 771.024 364.84 772.784 364.28C774.544 363.64 776.104 362.76 777.464 361.64ZM798.106 301.76H808.306V323.96H821.746V333.08H808.306V374H798.106V333.08H789.106V323.96H798.106V301.76ZM828.911 304.64C828.911 302.72 829.591 301.12 830.951 299.84C832.391 298.56 833.911 297.92 835.511 297.92C837.111 297.92 838.591 298.56 839.951 299.84C841.311 301.12 841.991 302.72 841.991 304.64C841.991 306.56 841.311 308.16 839.951 309.44C838.591 310.64 837.111 311.24 835.511 311.24C833.911 311.24 832.391 310.64 830.951 309.44C829.591 308.16 828.911 306.56 828.911 304.64ZM840.431 374H830.231V323.84H840.431V374ZM851.361 348.8C851.361 345.2 852.041 341.8 853.401 338.6C854.841 335.4 856.761 332.64 859.161 330.32C861.561 327.92 864.361 326.04 867.561 324.68C870.841 323.24 874.361 322.52 878.121 322.52C881.881 322.52 885.361 323.24 888.561 324.68C891.841 326.04 894.641 327.92 896.961 330.32C899.361 332.64 901.201 335.4 902.481 338.6C903.841 341.8 904.521 345.2 904.521 348.8C904.521 352.4 903.841 355.8 902.481 359C901.201 362.2 899.361 365 896.961 367.4C894.641 369.8 891.841 371.72 888.561 373.16C885.361 374.52 881.841 375.2 878.001 375.2C874.321 375.2 870.841 374.56 867.561 373.28C864.361 372 861.561 370.2 859.161 367.88C856.761 365.56 854.841 362.8 853.401 359.6C852.041 356.32 851.361 352.72 851.361 348.8ZM861.561 348.92C861.561 351.16 861.961 353.28 862.761 355.28C863.641 357.2 864.801 358.92 866.241 360.44C867.761 361.88 869.481 363.04 871.401 363.92C873.401 364.72 875.521 365.12 877.761 365.12C880.001 365.12 882.121 364.72 884.121 363.92C886.121 363.04 887.841 361.88 889.281 360.44C890.801 358.92 892.001 357.2 892.881 355.28C893.761 353.28 894.201 351.16 894.201 348.92C894.201 346.68 893.761 344.56 892.881 342.56C892.001 340.56 890.801 338.84 889.281 337.4C887.841 335.88 886.121 334.72 884.121 333.92C882.121 333.04 880.001 332.6 877.761 332.6C875.521 332.6 873.401 333.04 871.401 333.92C869.481 334.72 867.761 335.88 866.241 337.4C864.801 338.84 863.641 340.56 862.761 342.56C861.961 344.56 861.561 346.68 861.561 348.92ZM915.427 323.84H924.427C924.587 326.32 924.707 328.6 924.787 330.68C924.947 332.68 925.107 334.68 925.267 336.68C927.107 332.36 929.707 328.92 933.067 326.36C936.507 323.8 940.707 322.52 945.667 322.52C950.707 322.52 954.747 323.92 957.787 326.72C960.827 329.52 962.427 333.12 962.587 337.52V374H952.267V342.2C952.107 339.64 951.227 337.48 949.627 335.72C948.027 333.88 945.507 332.88 942.067 332.72C939.667 332.72 937.467 333.16 935.467 334.04C933.467 334.84 931.747 335.96 930.307 337.4C928.867 338.84 927.707 340.56 926.827 342.56C926.027 344.56 925.627 346.76 925.627 349.16V374H915.427V323.84ZM1004.44 328.28L999.041 335.48C998.961 335.4 998.681 335.2 998.201 334.88C997.721 334.56 997.081 334.24 996.281 333.92C995.561 333.6 994.681 333.32 993.641 333.08C992.681 332.76 991.681 332.6 990.641 332.6C989.281 332.6 987.921 332.92 986.561 333.56C985.281 334.2 984.641 335.4 984.641 337.16C984.641 338.68 985.161 339.92 986.201 340.88C987.321 341.84 988.681 342.72 990.281 343.52C991.881 344.24 993.601 345 995.441 345.8C997.361 346.6 999.121 347.6 1000.72 348.8C1002.32 349.92 1003.64 351.36 1004.68 353.12C1005.8 354.8 1006.36 356.96 1006.36 359.6C1006.36 364.08 1004.8 367.8 1001.68 370.76C998.641 373.64 994.441 375.08 989.081 375.08C985.961 375.08 982.881 374.56 979.841 373.52C976.881 372.4 974.481 370.8 972.641 368.72C973.201 368.16 973.801 367.44 974.441 366.56C975.161 365.68 975.841 364.84 976.481 364.04C977.201 363.24 977.761 362.6 978.161 362.12C978.641 361.56 978.921 361.28 979.001 361.28C979.001 361.36 979.281 361.6 979.841 362C980.481 362.4 981.281 362.84 982.241 363.32C983.201 363.72 984.281 364.12 985.481 364.52C986.681 364.84 987.881 365 989.081 365C991.001 365 992.641 364.52 994.001 363.56C995.361 362.6 996.041 361.32 996.041 359.72C996.041 358.28 995.481 357.16 994.361 356.36C993.321 355.48 992.001 354.68 990.401 353.96C988.801 353.24 987.041 352.52 985.121 351.8C983.201 351 981.441 350 979.841 348.8C978.241 347.6 976.881 346.12 975.761 344.36C974.721 342.52 974.201 340.16 974.201 337.28C974.201 334.56 974.681 332.28 975.641 330.44C976.681 328.6 977.961 327.12 979.481 326C981.081 324.8 982.841 323.96 984.761 323.48C986.681 322.92 988.521 322.64 990.281 322.64C992.601 322.64 995.081 323.12 997.721 324.08C1000.36 325.04 1002.6 326.44 1004.44 328.28ZM318.923 510.56H330.803C334.003 510.56 336.683 510 338.843 508.88C341.003 507.76 342.683 506.4 343.883 504.8C345.163 503.2 346.043 501.48 346.523 499.64C347.083 497.8 347.363 496.16 347.363 494.72C347.363 493.2 347.083 491.56 346.523 489.8C346.043 487.96 345.163 486.28 343.883 484.76C342.603 483.16 340.883 481.84 338.723 480.8C336.643 479.76 334.043 479.24 330.923 479.24H318.923V510.56ZM305.723 554V467H329.483C334.043 467 338.203 467.6 341.963 468.8C345.803 470 349.083 471.8 351.803 474.2C354.603 476.52 356.763 479.4 358.283 482.84C359.803 486.2 360.563 490.08 360.563 494.48C360.563 497.92 360.043 501.36 359.003 504.8C357.963 508.16 356.283 511.2 353.963 513.92C351.643 516.56 348.603 518.72 344.843 520.4C341.083 522.08 336.523 522.92 331.163 522.92H318.923V554H305.723ZM385.301 578.12H374.981C376.101 575.8 377.141 573.56 378.101 571.4C379.141 569.32 380.141 567.16 381.101 564.92C382.141 562.76 383.181 560.48 384.221 558.08C385.261 555.76 386.421 553.24 387.701 550.52C385.861 546.92 383.981 543.16 382.061 539.24C380.141 535.24 378.221 531.24 376.301 527.24C374.381 523.24 372.461 519.24 370.541 515.24C368.701 511.24 366.861 507.44 365.021 503.84H376.181C379.061 509.52 381.421 514.32 383.261 518.24C385.181 522.16 386.741 525.56 387.941 528.44C389.221 531.24 390.221 533.64 390.941 535.64C391.741 537.64 392.421 539.48 392.981 541.16C393.621 539.48 394.301 537.64 395.021 535.64C395.821 533.64 396.821 531.24 398.021 528.44C399.301 525.56 400.861 522.16 402.701 518.24C404.621 514.32 407.021 509.52 409.901 503.84H421.061L385.301 578.12ZM433.243 481.76H443.443V503.96H456.883V513.08H443.443V554H433.243V513.08H424.243V503.96H433.243V481.76ZM465.368 460.76H475.568V515.96C477.328 511.96 479.808 508.76 483.008 506.36C486.208 503.88 490.328 502.6 495.368 502.52C500.488 502.44 504.568 503.8 507.608 506.6C510.728 509.4 512.368 513.04 512.528 517.52V554H502.208V522.2C502.048 519.64 501.168 517.48 499.568 515.72C497.968 513.88 495.448 512.88 492.008 512.72C489.608 512.72 487.408 513.16 485.408 514.04C483.408 514.84 481.688 515.96 480.248 517.4C478.808 518.84 477.648 520.56 476.768 522.56C475.968 524.56 475.568 526.76 475.568 529.16V554H465.368V460.76ZM522.943 528.8C522.943 525.2 523.623 521.8 524.983 518.6C526.423 515.4 528.343 512.64 530.743 510.32C533.143 507.92 535.943 506.04 539.143 504.68C542.423 503.24 545.943 502.52 549.703 502.52C553.463 502.52 556.943 503.24 560.143 504.68C563.423 506.04 566.223 507.92 568.543 510.32C570.943 512.64 572.783 515.4 574.063 518.6C575.423 521.8 576.103 525.2 576.103 528.8C576.103 532.4 575.423 535.8 574.063 539C572.783 542.2 570.943 545 568.543 547.4C566.223 549.8 563.423 551.72 560.143 553.16C556.943 554.52 553.423 555.2 549.583 555.2C545.903 555.2 542.423 554.56 539.143 553.28C535.943 552 533.143 550.2 530.743 547.88C528.343 545.56 526.423 542.8 524.983 539.6C523.623 536.32 522.943 532.72 522.943 528.8ZM533.143 528.92C533.143 531.16 533.543 533.28 534.343 535.28C535.223 537.2 536.383 538.92 537.823 540.44C539.343 541.88 541.063 543.04 542.983 543.92C544.983 544.72 547.103 545.12 549.343 545.12C551.583 545.12 553.703 544.72 555.703 543.92C557.703 543.04 559.423 541.88 560.863 540.44C562.383 538.92 563.583 537.2 564.463 535.28C565.343 533.28 565.783 531.16 565.783 528.92C565.783 526.68 565.343 524.56 564.463 522.56C563.583 520.56 562.383 518.84 560.863 517.4C559.423 515.88 557.703 514.72 555.703 513.92C553.703 513.04 551.583 512.6 549.343 512.6C547.103 512.6 544.983 513.04 542.983 513.92C541.063 514.72 539.343 515.88 537.823 517.4C536.383 518.84 535.223 520.56 534.343 522.56C533.543 524.56 533.143 526.68 533.143 528.92ZM587.009 503.84H596.009C596.169 506.32 596.289 508.6 596.369 510.68C596.529 512.68 596.689 514.68 596.849 516.68C598.689 512.36 601.289 508.92 604.649 506.36C608.089 503.8 612.289 502.52 617.249 502.52C622.289 502.52 626.329 503.92 629.369 506.72C632.409 509.52 634.009 513.12 634.169 517.52V554H623.849V522.2C623.689 519.64 622.809 517.48 621.209 515.72C619.609 513.88 617.089 512.88 613.649 512.72C611.249 512.72 609.049 513.16 607.049 514.04C605.049 514.84 603.329 515.96 601.889 517.4C600.449 518.84 599.289 520.56 598.409 522.56C597.609 524.56 597.209 526.76 597.209 529.16V554H587.009V503.84ZM718.2 528.8C718.2 526.48 717.84 524.36 717.12 522.44C716.4 520.44 715.36 518.72 714 517.28C712.64 515.84 711 514.72 709.08 513.92C707.16 513.04 705 512.6 702.6 512.6C700.2 512.6 697.96 513.04 695.88 513.92C693.88 514.72 692.16 515.84 690.72 517.28C689.28 518.72 688.12 520.44 687.24 522.44C686.44 524.36 686.04 526.48 686.04 528.8C686.04 531.12 686.44 533.28 687.24 535.28C688.12 537.28 689.28 539 690.72 540.44C692.16 541.88 693.88 543.04 695.88 543.92C697.96 544.72 700.2 545.12 702.6 545.12C705 545.12 707.16 544.72 709.08 543.92C711 543.04 712.64 541.88 714 540.44C715.36 538.92 716.4 537.2 717.12 535.28C717.84 533.28 718.2 531.12 718.2 528.8ZM729.36 529.04C729.36 532.8 728.72 536.28 727.44 539.48C726.16 542.68 724.36 545.44 722.04 547.76C719.72 550.08 716.92 551.92 713.64 553.28C710.44 554.56 706.92 555.2 703.08 555.2C701.08 555.2 699.16 554.96 697.32 554.48C695.56 554.08 693.92 553.52 692.4 552.8C690.88 552 689.56 551.16 688.44 550.28C687.32 549.32 686.48 548.36 685.92 547.4C685.92 547.8 685.92 548.24 685.92 548.72C686 549.12 686.04 549.52 686.04 549.92V578.12H675.72V503.84H685.68C685.68 504.8 685.72 506 685.8 507.44C685.96 508.8 686.04 510.04 686.04 511.16C686.68 510.2 687.52 509.24 688.56 508.28C689.68 507.24 690.96 506.32 692.4 505.52C693.92 504.64 695.6 503.92 697.44 503.36C699.28 502.8 701.32 502.52 703.56 502.52C707.4 502.52 710.88 503.16 714 504.44C717.2 505.64 719.92 507.4 722.16 509.72C724.48 511.96 726.24 514.72 727.44 518C728.72 521.28 729.36 524.96 729.36 529.04ZM739.204 484.64C739.204 482.72 739.884 481.12 741.244 479.84C742.684 478.56 744.204 477.92 745.804 477.92C747.404 477.92 748.884 478.56 750.244 479.84C751.604 481.12 752.284 482.72 752.284 484.64C752.284 486.56 751.604 488.16 750.244 489.44C748.884 490.64 747.404 491.24 745.804 491.24C744.204 491.24 742.684 490.64 741.244 489.44C739.884 488.16 739.204 486.56 739.204 484.64ZM750.724 554H740.524V503.84H750.724V554ZM807.614 528.8C807.614 526.48 807.254 524.36 806.534 522.44C805.814 520.44 804.774 518.72 803.414 517.28C802.054 515.84 800.414 514.72 798.494 513.92C796.574 513.04 794.414 512.6 792.014 512.6C789.614 512.6 787.374 513.04 785.294 513.92C783.294 514.72 781.574 515.84 780.134 517.28C778.694 518.72 777.534 520.44 776.654 522.44C775.854 524.36 775.454 526.48 775.454 528.8C775.454 531.12 775.854 533.28 776.654 535.28C777.534 537.28 778.694 539 780.134 540.44C781.574 541.88 783.294 543.04 785.294 543.92C787.374 544.72 789.614 545.12 792.014 545.12C794.414 545.12 796.574 544.72 798.494 543.92C800.414 543.04 802.054 541.88 803.414 540.44C804.774 538.92 805.814 537.2 806.534 535.28C807.254 533.28 807.614 531.12 807.614 528.8ZM818.774 529.04C818.774 532.8 818.134 536.28 816.854 539.48C815.574 542.68 813.774 545.44 811.454 547.76C809.134 550.08 806.334 551.92 803.054 553.28C799.854 554.56 796.334 555.2 792.494 555.2C790.494 555.2 788.574 554.96 786.734 554.48C784.974 554.08 783.334 553.52 781.814 552.8C780.294 552 778.974 551.16 777.854 550.28C776.734 549.32 775.894 548.36 775.334 547.4C775.334 547.8 775.334 548.24 775.334 548.72C775.414 549.12 775.454 549.52 775.454 549.92V578.12H765.134V503.84H775.094C775.094 504.8 775.134 506 775.214 507.44C775.374 508.8 775.454 510.04 775.454 511.16C776.094 510.2 776.934 509.24 777.974 508.28C779.094 507.24 780.374 506.32 781.814 505.52C783.334 504.64 785.014 503.92 786.854 503.36C788.694 502.8 790.734 502.52 792.974 502.52C796.814 502.52 800.294 503.16 803.414 504.44C806.614 505.64 809.334 507.4 811.574 509.72C813.894 511.96 815.654 514.72 816.854 518C818.134 521.28 818.774 524.96 818.774 529.04ZM872.418 548.12C870.018 550.28 867.098 552 863.658 553.28C860.218 554.56 856.698 555.2 853.098 555.2C849.418 555.2 845.938 554.52 842.658 553.16C839.458 551.72 836.658 549.84 834.258 547.52C831.858 545.12 829.938 542.32 828.498 539.12C827.138 535.92 826.458 532.52 826.458 528.92C826.458 525.32 827.138 521.92 828.498 518.72C829.938 515.52 831.858 512.72 834.258 510.32C836.658 507.92 839.418 506.04 842.538 504.68C845.738 503.24 849.138 502.52 852.738 502.52C858.418 502.52 863.338 504.24 867.498 507.68C871.738 511.04 874.778 515.48 876.618 521C874.138 521.88 871.298 522.96 868.098 524.24C864.898 525.52 861.578 526.88 858.138 528.32C854.698 529.68 851.258 531.04 847.818 532.4C844.378 533.76 841.178 535 838.218 536.12C839.578 538.84 841.538 541.04 844.098 542.72C846.738 544.32 849.658 545.12 852.858 545.12C855.018 545.12 857.178 544.72 859.338 543.92C861.578 543.12 863.378 542.04 864.738 540.68L872.418 548.12ZM863.778 518.6C862.818 516.6 861.298 515.12 859.218 514.16C857.138 513.12 855.018 512.6 852.858 512.6C850.538 512.6 848.378 513.04 846.378 513.92C844.458 514.8 842.778 516 841.338 517.52C839.898 518.96 838.738 520.64 837.858 522.56C837.058 524.48 836.658 526.44 836.658 528.44C836.658 528.84 836.658 529.12 836.658 529.28C836.738 529.44 836.778 529.56 836.778 529.64C838.858 528.84 841.098 527.96 843.498 527C845.978 525.96 848.418 524.96 850.818 524C853.218 522.96 855.538 522 857.778 521.12C860.018 520.16 862.018 519.32 863.778 518.6ZM885.485 503.84H894.485C894.645 506.32 894.765 508.6 894.845 510.68C895.005 512.68 895.165 514.68 895.325 516.68C897.165 512.36 899.765 508.92 903.125 506.36C906.565 503.8 910.765 502.52 915.725 502.52C920.765 502.52 924.805 503.92 927.845 506.72C930.885 509.52 932.485 513.12 932.645 517.52V554H922.325V522.2C922.165 519.64 921.285 517.48 919.685 515.72C918.085 513.88 915.565 512.88 912.125 512.72C909.725 512.72 907.525 513.16 905.525 514.04C903.525 514.84 901.805 515.96 900.365 517.4C898.925 518.84 897.765 520.56 896.885 522.56C896.085 524.56 895.685 526.76 895.685 529.16V554H885.485V503.84ZM965.28 557C960.56 548.04 956.12 539.2 951.96 530.48C947.88 521.68 943.56 512.8 939 503.84H950.16C953.04 509.52 955.32 514.16 957 517.76C958.76 521.36 960.16 524.36 961.2 526.76C962.24 529.16 963.04 531.2 963.6 532.88C964.16 534.48 964.72 536.12 965.28 537.8C965.92 536.12 966.52 534.48 967.08 532.88C967.72 531.2 968.52 529.16 969.48 526.76C970.52 524.36 971.88 521.36 973.56 517.76C975.32 514.16 977.64 509.52 980.52 503.84H991.68C987.12 512.8 982.72 521.68 978.48 530.48C974.24 539.2 969.84 548.04 965.28 557Z" fill="black"/>
<path d="M276.938 389H1010.08V395H276.938V389Z" fill="black"/>
<path d="M418.895 204.016C418.895 204.823 417.968 205.468 416.798 205.468C415.468 205.589 414.54 204.944 414.54 204.016C414.54 203.21 415.468 202.565 416.637 202.565C417.847 202.444 418.895 203.089 418.895 204.016ZM406.355 202.202C406.073 203.008 406.879 203.935 408.089 204.177C409.137 204.581 410.347 204.177 410.589 203.371C410.831 202.565 410.065 201.637 408.855 201.274C407.806 200.992 406.637 201.395 406.355 202.202ZM424.177 201.516C423.008 201.798 422.202 202.565 422.323 203.492C422.444 204.298 423.492 204.823 424.702 204.54C425.871 204.258 426.677 203.492 426.556 202.686C426.435 201.919 425.347 201.395 424.177 201.516ZM450.71 47C394.782 47 352 89.4597 352 145.387C352 190.105 380.145 228.371 420.347 241.839C425.508 242.766 427.323 239.581 427.323 236.96C427.323 234.46 427.202 220.669 427.202 212.202C427.202 212.202 398.976 218.25 393.048 200.186C393.048 200.186 388.452 188.452 381.839 185.427C381.839 185.427 372.605 179.097 382.484 179.218C382.484 179.218 392.524 180.024 398.048 189.621C406.879 205.186 421.677 200.71 427.444 198.048C428.371 191.597 430.992 187.121 433.895 184.46C411.355 181.96 388.613 178.694 388.613 139.903C388.613 128.815 391.677 123.25 398.129 116.153C397.081 113.532 393.653 102.726 399.177 88.7742C407.605 86.1532 427 99.6613 427 99.6613C435.065 97.4032 443.734 96.2339 452.323 96.2339C460.911 96.2339 469.581 97.4032 477.645 99.6613C477.645 99.6613 497.04 86.1129 505.468 88.7742C510.992 102.766 507.565 113.532 506.516 116.153C512.968 123.29 516.919 128.855 516.919 139.903C516.919 178.815 493.169 181.919 470.629 184.46C474.339 187.645 477.484 193.694 477.484 203.169C477.484 216.758 477.363 233.573 477.363 236.879C477.363 239.5 479.218 242.686 484.339 241.758C524.661 228.371 552 190.105 552 145.387C552 89.4597 506.637 47 450.71 47ZM391.194 186.073C390.669 186.476 390.79 187.403 391.476 188.169C392.121 188.815 393.048 189.097 393.573 188.573C394.097 188.169 393.976 187.242 393.29 186.476C392.645 185.831 391.718 185.548 391.194 186.073ZM386.839 182.806C386.556 183.331 386.96 183.976 387.766 184.379C388.411 184.782 389.218 184.661 389.5 184.097C389.782 183.573 389.379 182.927 388.573 182.524C387.766 182.282 387.121 182.403 386.839 182.806ZM399.903 197.161C399.258 197.686 399.5 198.895 400.427 199.661C401.355 200.589 402.524 200.71 403.048 200.065C403.573 199.54 403.331 198.331 402.524 197.565C401.637 196.637 400.427 196.516 399.903 197.161ZM395.306 191.234C394.661 191.637 394.661 192.686 395.306 193.613C395.952 194.54 397.04 194.944 397.565 194.54C398.21 194.016 398.21 192.968 397.565 192.04C397 191.113 395.952 190.71 395.306 191.234Z" fill="black"/>
<path d="M924.333 122.221C920.896 108.427 914.378 98.0257 900.495 98.0257H882.594V119.186C882.594 135.614 868.665 149.453 852.773 149.453H805.096C792.061 149.453 781.258 160.613 781.258 173.693V219.138C781.258 232.084 792.507 239.673 805.096 243.378C820.185 247.798 834.693 248.601 852.773 243.378C864.782 239.896 876.612 232.887 876.612 219.138V200.969H828.979V194.898H900.495C914.378 194.898 919.512 185.21 924.333 170.702C929.333 155.747 929.11 141.373 924.333 122.221ZM855.764 213.067C860.719 213.067 864.737 217.129 864.737 222.129C864.737 227.173 860.719 231.236 855.764 231.236C850.854 231.236 846.791 227.129 846.791 222.129C846.836 217.084 850.854 213.067 855.764 213.067ZM802.909 143.471H850.586C863.844 143.471 874.424 132.534 874.424 119.23V73.7408C874.424 60.7948 863.532 51.1076 850.586 48.9202C834.604 46.2863 817.239 46.4202 802.909 48.9648C782.731 52.5361 779.07 59.9912 779.07 73.7854V91.9545H826.792V98.0257H761.169C747.285 98.0257 735.143 106.374 731.348 122.221C726.974 140.39 726.795 151.729 731.348 170.702C734.741 184.809 742.821 194.898 756.705 194.898H773.088V173.113C773.088 157.354 786.704 143.471 802.909 143.471ZM799.918 79.812C794.962 79.812 790.945 75.7497 790.945 70.7498C790.989 65.7053 794.962 61.643 799.918 61.643C804.828 61.643 808.891 65.75 808.891 70.7498C808.891 75.7497 804.873 79.812 799.918 79.812Z" fill="black"/>
<defs>
<filter id="filter0_d" x="0" y="0" width="1288" height="648" filterUnits="userSpaceOnUse" color-interpolation-filters="sRGB">
<feFlood flood-opacity="0" result="BackgroundImageFix"/>
<feColorMatrix in="SourceAlpha" type="matrix" values="0 0 0 0 0 0 0 0 0 0 0 0 0 0 0 0 0 0 127 0"/>
<feOffset dy="4"/>
<feGaussianBlur stdDeviation="2"/>
<feColorMatrix type="matrix" values="0 0 0 0 0 0 0 0 0 0 0 0 0 0 0 0 0 0 0.25 0"/>
<feBlend mode="normal" in2="BackgroundImageFix" result="effect1_dropShadow"/>
<feBlend mode="normal" in="SourceGraphic" in2="effect1_dropShadow" result="shape"/>
</filter>
</defs>
</svg>
